# AST/ASF file generated using VICON BodyLanguage
# -----------------------------------------------
:version 1.10
:name VICON
:units
  mass 1.0
  length 0.45
  angle deg
:documentation
   .ast/.asf automatically generated from VICON data using
   VICON BodyBuilder and BodyLanguage model FoxedUp or BRILLIANT.MOD
:root
   order TX TY TZ RX RY RZ
   axis XYZ
   position 0 0 0  
   orientation 0 0 0 
:bonedata
  begin
     id 1 
     name lhipjoint
     direction 0.535335 -0.74333 0.401095 
     length 2.04549 
     axis 0 0 0  XYZ
  end
  begin
     id 2 
     name lfemur
     direction 0.34202 -0.939693 0  
     length 6.95643  
     axis 0 0 20  XYZ
    dof rx ry rz
    limits (-160.0 20.0)
           (-70.0 70.0)
           (-60.0 70.0)
  end
  begin
     id 3 
     name ltibia
     direction 0.34192 -0.939729 0   
     length 5.55969   
     axis 0 0 20   XYZ
    dof rx
    limits (-10.0 170.0)
  end
  begin
     id 4 
     name lfoot
     direction 0.216943 -0.596046 0.773088   
     length 2.27918   
     axis -90 7.62852e-016 20   XYZ
    dof rx rz
    limits (-45.0 90.0)
           (-70.0 20.0)
  end
  begin
     id 5 
     name ltoes
     direction 1.53519e-011 -4.21748e-011 1   
     length 1.05562   
     axis -90 7.62852e-016 20   XYZ
    dof rx
    limits (-90.0 20.0)
  end
  begin
     id 6 
     name rhipjoint
     direction -0.576368 -0.719173 0.38806   
     length 2.1142  
     axis 0 0 0  XYZ 
  end
  begin
     id 7 
     name rfemur
     direction -0.34202 -0.939693 0   
     length 7.07928   
     axis 0 0 -20   XYZ
    dof rx ry rz
    limits (-160.0 20.0)
           (-70.0 70.0)
           (-70.0 60.0)
  end
  begin
     id 8 
     name rtibia
     direction -0.34202 -0.939693 0   
     length 5.79974   
     axis 0 0 -20   XYZ
    dof rx
    limits (-10.0 170.0)
 end
 begin
     id 9 
     name rfoot
     direction -0.189288 -0.520065 0.832888   
     length 2.42173  
     axis -90 -7.62852e-016 -20   XYZ
    dof rx rz
    limits (-45.0 90.0)
           (-20.0 70.0)
  end
  begin
     id 10 
     name rtoes
     direction -1.53574e-011 -4.21658e-011 1   
     length 1.14469   
     axis -90 -7.62852e-016 -20   XYZ
    dof rx
    limits (-90.0 20.0)
  end
  begin
     id 11 
     name lowerback
     direction -0.00135702 0.993803 0.111144   
     length 1.91308   
     axis 0 0 0   XYZ
    dof rx ry rz
    limits (-20.0 45.0)
           (-30.0 30.0)
           (-30.0 30.0)
  end
  begin
     id 12 
     name upperback
     direction -0.0056745 0.999813 0.0184631   
     length 1.9212   
     axis 0 0 0   XYZ
    dof rx ry rz
    limits (-20.0 45.0)
           (-30.0 30.0)
           (-30.0 30.0)
  end
  begin
     id 13 
     name thorax
     direction -0.00733434 0.999426 -0.0330788   
     length 1.94196   
     axis 0 0 0   XYZ
    dof rx ry rz
    limits (-20.0 45.0)
           (-30.0 30.0)
           (-30.0 30.0)
  end
  begin
     id 14 
     name lowerneck
     direction 0.0563074 0.996944 -0.0541571   
     length 2.34257   
     axis 0 0 0   XYZ
    dof rx ry rz
    limits (-20.0 45.0)
           (-30.0 30.0)
           (-30.0 30.0)
  end
  begin
     id 15 
     name upperneck
     direction -0.0544519 0.976166 -0.210085   
     length 2.32506   
     axis 0 0 0   XYZ
    dof rx ry rz
    limits (-20.0 45.0)
           (-30.0 30.0)
           (-30.0 30.0)
  end
  begin
     id 16
     name head
     direction -0.0226035 0.997615 -0.0652205  
     length 2.3648  
     axis 0 0 0   XYZ
    dof rx ry rz
    limits (-20.0 45.0)
           (-30.0 30.0)
           (-30.0 30.0)
  end
  begin
     id 17 
     name lclavicle
     direction 0.92109 0.381297 -0.0787716  
     length 4.0487  
     axis 0 0 0   XYZ
    dof ry rz
    limits (-20.0 10.0)
           (0.0 20.0)
  end
  begin
     id 18 
     name lhumerus
     direction 1 -4.48986e-011 3.56724e-027   
     length 4.94991   
     axis 180 -30 -90   XYZ
    dof rx ry rz
    limits (-60.0 90.0)
           (-90.0 90.0)
           (-90.0 90.0)
  end
  begin
     id 19
     name lradius
     direction 1 -4.48981e-011 8.62147e-027   
     length 2.7606   
     axis 180 -30 -90   XYZ
    dof rx
    limits (-10.0 170.0)
  end
  begin
     id 20
     name lwrist
     direction 1 -4.48989e-011 1.59799e-026   
     length 1.3803   
     axis -1.17785e-014 90 90   XYZ
    dof ry
    limits (-180.0 0.0)
 end
  begin
     id 21 
     name lhand
     direction 1 -4.48896e-011 3.19599e-026   
     length 0.843936   
     axis -2.03931e-014 90 90   XYZ
    dof rx rz
    limits (-90.0 90.0)
           (-45.0 45.0)
  end
  begin
     id 22 
     name lfingers
     direction 1 -4.48887e-011 6.39197e-026   
     length 0.680403   
     axis -4.07862e-014 90 90   XYZ
    dof rx
    limits (0.0 90.0)
  end
  begin
     id 23
     name lthumb
     direction 0.707107 -6.348e-011 0.707107   
     length 0.976926   
     axis -90 45 2.85299e-015   XYZ
    dof rx rz
    limits (-45.0 45.0)
           (-45.0 45.0)
  end
  begin
     id 24 
     name rclavicle
     direction -0.951104 0.307692 -0.026953   
     length 4.21801  
     axis 0 0 0   XYZ 
    dof ry rz
    limits (-10.0 20.0)
           (-20.0 0.0)
  end
  begin
     id 25 
     name rhumerus
     direction -1 -4.4896e-011 -1.8171e-018  
     length 4.32982   
     axis 180 30 90   XYZ
    dof rx ry rz
    limits (-90.0 60.0)
           (-90.0 90.0)
           (-90.0 90.0)
  end
  begin
     id 26 
     name rradius
     direction -1 -4.48959e-011 8.25165e-027   
     length 3.20057   
     axis 180 30 90   XYZ
    dof rx
    limits (-10.0 170.0)
  end
  begin
     id 27 
     name rwrist
     direction -1 -4.48997e-011 1.59799e-026   
     length 1.60029   
     axis -1.17785e-014 -90 -90   XYZ
    dof ry
    limits (-180.0 0.0)
  end
  begin
     id 28
     name rhand
     direction -1 -4.49023e-011 3.19599e-026   
     length 0.960433   
     axis -2.03931e-014 -90 -90   XYZ
    dof rx rz
    limits (-90.0 90.0)
           (-45.0 45.0)
  end
  begin
     id 29
     name rfingers
     direction -1 -4.48802e-011 6.39197e-026   
     length 0.774326   
     axis -4.07862e-014 -90 -90   XYZ
    dof rx
    limits (0.0 90.0)
  end
  begin
     id 30
     name rthumb
     direction -0.707107 -6.34876e-011 0.707107   
     length 1.11178   
     axis -90 -45 -2.85299e-015   XYZ
    dof rx rz
    limits (-45.0 45.0)
           (-45.0 45.0)
  end
:hierarchy
  begin
    root lhipjoint rhipjoint lowerback
    lhipjoint lfemur
    lfemur ltibia
    ltibia lfoot
    lfoot ltoes
    rhipjoint rfemur
    rfemur rtibia
    rtibia rfoot
    rfoot rtoes
    lowerback upperback
    upperback thorax
    thorax lowerneck lclavicle rclavicle
    lowerneck upperneck
    upperneck head
    lclavicle lhumerus
    lhumerus lradius
    lradius lwrist
    lwrist lhand lthumb
    lhand lfingers
    rclavicle rhumerus
    rhumerus rradius
    rradius rwrist
    rwrist rhand rthumb
    rhand rfingers
end

#!OML:ASF C:\KaitlinTest1\Natural Motions\Nikki\Session 2\Nikki.ASF
:FULLY-SPECIFIED
:DEGREES
110
root -11.1358 16.4112 4.92377 -144.533 85.1641 -155.044
lowerback -11.8762 -2.81493 1.30589
upperback -4.24929 -3.70593 0.0552343
thorax 2.123 -1.77859 -1.16863
lowerneck -5.34019 -11.4012 -10.274
upperneck 5.54115 39.0731 4.91979
head 162.728 65.5754 -40.8926
rclavicle 3.19049e-014 3.18055e-015
rhumerus -36.5475 -13.5986 -85.9189
rradius 16.7879
rwrist 24.9797
rhand -36.8267 2.54204
rfingers 7.12502
rthumb -9.90743 -27.2048
lclavicle 3.19049e-014 3.18055e-015
lhumerus -43.5015 22.2269 77.0315
lradius 23.7372
lwrist -33.8108
lhand -35.6978 5.40758
lfingers 7.12502
lthumb -8.81823 35.2033
rfemur -14.3352 -14.6074 21.8778
rtibia 25.2132
rfoot -18.4121 10.2817
rtoes -5.80451e-014
lfemur -18.4847 14.7034 -17.8329
ltibia 28.1436
lfoot -12.5366 -16.5115
ltoes 4.77083e-015
111
root -11.1327 16.4124 4.92341 -144.241 85.1342 -154.783
lowerback -11.8724 -2.80846 1.33795
upperback -4.23888 -3.70181 0.0618558
thorax 2.13022 -1.77677 -1.17927
lowerneck -5.34461 -11.3829 -10.2901
upperneck 5.55723 39.154 4.94677
head 162.888 65.5197 -40.7967
rclavicle 2.65378e-014 -3.18055e-015
rhumerus -36.5489 -13.482 -85.9759
rradius 16.8627
rwrist 24.8226
rhand -36.8403 2.4417
rfingers 7.12502
rthumb -9.92053 -27.3046
lclavicle 2.65378e-014 -3.18055e-015
lhumerus -43.4532 22.0982 77.1299
lradius 23.8062
lwrist -33.7314
lhand -35.6825 5.505
lfingers 7.12502
lthumb -8.80343 35.3014
rfemur -14.3532 -14.6716 21.925
rtibia 25.1957
rfoot -18.4522 10.3364
rtoes -1.59028e-015
lfemur -18.5294 14.7322 -17.8059
ltibia 28.1647
lfoot -12.5242 -16.5626
ltoes 1.59028e-015
112
root -11.1296 16.4112 4.9232 -144.381 85.1441 -154.951
lowerback -11.8259 -2.80439 1.31266
upperback -4.26246 -3.69225 0.0640407
thorax 2.08247 -1.77229 -1.1584
lowerneck -5.27563 -11.3893 -10.3127
upperneck 5.56655 39.1051 4.93168
head 162.803 65.5565 -40.8344
rclavicle 1.63252e-014 3.57812e-015
rhumerus -36.625 -13.5895 -85.8623
rradius 16.899
rwrist 25.0239
rhand -36.7373 2.47811
rfingers 7.12502
rthumb -9.82117 -27.2729
lclavicle 1.63252e-014 3.57812e-015
lhumerus -43.4643 22.0087 77.1843
lradius 23.8509
lwrist -33.6807
lhand -35.6556 5.4819
lfingers 7.12502
lthumb -8.7775 35.2794
rfemur -14.3727 -14.685 21.9184
rtibia 25.1894
rfoot -18.4432 10.3199
rtoes 1.82882e-014
lfemur -18.5398 14.6914 -17.8221
ltibia 28.1728
lfoot -12.5458 -16.524
ltoes -1.11319e-014
113
root -11.1254 16.4103 4.92274 -143.878 85.1493 -154.504
lowerback -11.8857 -2.79425 1.35238
upperback -4.25017 -3.68407 0.0624932
thorax 2.12527 -1.76785 -1.18467
lowerneck -5.2384 -11.3669 -10.3296
upperneck 5.58357 39.1528 4.95513
head 163.008 65.4537 -40.6669
rclavicle 1.30949e-014 3.97569e-016
rhumerus -36.5896 -13.4635 -85.9549
rradius 16.9334
rwrist 24.7879
rhand -36.6938 2.41264
rfingers 7.12502
rthumb -9.7792 -27.3403
lclavicle 1.30949e-014 3.97569e-016
lhumerus -43.4234 21.9883 77.1636
lradius 23.8532
lwrist -33.773
lhand -35.5995 5.45579
lfingers 7.12502
lthumb -8.72337 35.2555
rfemur -14.4257 -14.638 21.9483
rtibia 25.1912
rfoot -18.4365 10.3381
rtoes 5.24792e-014
lfemur -18.5817 14.7435 -17.8057
ltibia 28.1746
lfoot -12.5524 -16.5723
ltoes 3.49861e-014
114
root -11.1221 16.4096 4.9214 -143.808 85.1443 -154.443
lowerback -11.8089 -2.80025 1.36615
upperback -4.27297 -3.6922 0.0633175
thorax 2.05877 -1.77281 -1.18772
lowerneck -5.20347 -11.3538 -10.3382
upperneck 5.61522 39.2182 4.97057
head 163.004 65.4271 -40.6767
rclavicle 2.03754e-014 0
rhumerus -36.6412 -13.2758 -86.0222
rradius 17.0248
rwrist 24.5548
rhand -36.6601 2.45915
rfingers 7.12502
rthumb -9.7467 -27.2953
lclavicle 2.03754e-014 0
lhumerus -43.4616 21.9119 77.1795
lradius 23.8588
lwrist -33.6736
lhand -35.7569 5.32615
lfingers 7.12502
lthumb -8.87524 35.1195
rfemur -14.4222 -14.5982 21.9498
rtibia 25.1924
rfoot -18.4296 10.294
rtoes -4.13472e-014
lfemur -18.5772 14.7332 -17.7998
ltibia 28.1711
lfoot -12.5449 -16.5528
ltoes -6.20208e-014
115
root -11.1193 16.4082 4.92056 -143.912 85.1288 -154.578
lowerback -11.7885 -2.80553 1.35563
upperback -4.23617 -3.70037 0.0685663
thorax 2.08685 -1.77717 -1.17764
lowerneck -5.24574 -11.3737 -10.3333
upperneck 5.55839 39.0565 4.91623
head 162.783 65.6067 -40.8315
rclavicle 3.598e-014 0
rhumerus -36.6005 -12.8911 -86.2201
rradius 17.1772
rwrist 24.0688
rhand -36.5961 2.27103
rfingers 7.12502
rthumb -9.68501 -27.4863
lclavicle 3.598e-014 0
lhumerus -43.3793 21.894 77.2193
lradius 23.9023
lwrist -33.7027
lhand -35.7492 5.27762
lfingers 7.12502
lthumb -8.8678 35.0713
rfemur -14.4413 -14.6104 21.9512
rtibia 25.1973
rfoot -18.4303 10.2772
rtoes 5.24792e-014
lfemur -18.5877 14.7002 -17.8002
ltibia 28.1671
lfoot -12.5527 -16.5512
ltoes 4.6118e-014
116
root -11.1155 16.4108 4.91957 -143.908 85.1068 -154.575
lowerback -11.7081 -2.80792 1.3653
upperback -4.24578 -3.70387 0.0658476
thorax 2.03227 -1.77988 -1.18169
lowerneck -5.1779 -11.3404 -10.3648
upperneck 5.60042 39.1602 4.95881
head 163.034 65.4956 -40.6466
rclavicle 7.45443e-017 5.96354e-015
rhumerus -36.6723 -12.7573 -86.2667
rradius 17.2903
rwrist 23.8515
rhand -36.7252 2.549
rfingers 7.12502
rthumb -9.80955 -27.2025
lclavicle 7.45443e-017 5.96354e-015
lhumerus -43.4052 21.7721 77.2695
lradius 23.9782
lwrist -33.5335
lhand -35.799 5.22687
lfingers 7.12502
lthumb -8.91585 35.0185
rfemur -14.4233 -14.6123 21.9594
rtibia 25.1981
rfoot -18.473 10.2674
rtoes -2.22639e-014
lfemur -18.592 14.7407 -17.7918
ltibia 28.1649
lfoot -12.5688 -16.59
ltoes -9.54166e-015
117
root -11.1121 16.4105 4.91817 -143.999 85.111 -154.672
lowerback -11.6426 -2.80876 1.37114
upperback -4.2453 -3.70511 0.0493397
thorax 1.99564 -1.78143 -1.19869
lowerneck -5.16592 -11.3221 -10.3545
upperneck 5.64119 39.2961 5.0083
head 163.229 65.3534 -40.5186
rclavicle 2.04003e-014 -3.18055e-015
rhumerus -36.7152 -12.6733 -86.3208
rradius 17.3718
rwrist 23.7467
rhand -36.7918 2.70393
rfingers 7.12502
rthumb -9.87376 -27.0445
lclavicle 2.04003e-014 -3.18055e-015
lhumerus -43.4138 21.7397 77.2321
lradius 24.0514
lwrist -33.6471
lhand -35.7914 5.22944
lfingers 7.12502
lthumb -8.90852 35.0214
rfemur -14.4117 -14.669 21.9515
rtibia 25.1955
rfoot -18.4996 10.2957
rtoes 6.2816e-014
lfemur -18.5736 14.7239 -17.8021
ltibia 28.1628
lfoot -12.6308 -16.5575
ltoes 1.19271e-013
